<?xml version="1.0" standalone="no"?>
<!DOCTYPE svg PUBLIC "-//W3C//DTD SVG 20010904//EN"
 "http://www.w3.org/TR/2001/REC-SVG-20010904/DTD/svg10.dtd">
<svg version="1.0" xmlns="http://www.w3.org/2000/svg"
 width="500.000000pt" height="500.000000pt" viewBox="0 0 500.000000 500.000000"
 preserveAspectRatio="xMidYMid meet">
<metadata>
Created by potrace 1.16, written by Peter Selinger 2001-2019
</metadata>
<g transform="translate(0.000000,500.000000) scale(0.100000,-0.100000)"
fill="#00E070" stroke="none">
<path d="M1562 4175 c-17 -14 -103 -151 -197 -315 -92 -160 -170 -289 -172
-286 -3 3 21 105 52 228 40 158 55 234 52 261 -9 69 -75 115 -143 102 -71 -13
-82 -34 -193 -375 -56 -173 -106 -324 -111 -335 -5 -12 -9 69 -9 215 -1 217
-3 237 -21 268 -43 71 -140 80 -197 18 -40 -43 -39 -41 -52 -516 -9 -332 -13
-381 -30 -425 -47 -122 -64 -300 -40 -431 56 -321 291 -582 604 -675 96 -28
294 -36 390 -16 348 74 610 341 670 681 30 175 13 269 -56 310 -42 25 -113 24
-147 -1 -54 -40 -64 -65 -73 -180 -9 -129 -19 -167 -67 -253 -111 -201 -344
-316 -573 -281 -297 45 -509 330 -468 628 46 330 365 546 688 467 107 -26 177
-69 271 -164 99 -101 113 -110 174 -110 72 0 136 67 136 143 0 67 -124 211
-254 296 -64 42 -217 110 -248 111 -9 0 -19 4 -22 8 -2 4 49 117 115 251 125
255 133 284 104 341 -32 62 -129 80 -183 35z"/>
<path d="M1243 3224 c-8 -4 -2 -21 18 -52 27 -42 30 -53 25 -102 -2 -30 -2
-49 0 -42 7 15 34 16 34 0 0 -9 3 -9 12 0 18 18 51 15 44 -4 -14 -35 -18 -64
-9 -64 24 0 28 22 19 89 -9 68 -9 71 21 120 26 40 29 51 16 55 -17 7 -163 7
-180 0z"/>
<path d="M2970 3025 c-16 -20 -5 -62 19 -70 33 -10 71 5 77 31 8 33 -12 54
-51 54 -18 0 -38 -7 -45 -15z"/>
<path d="M4310 2825 l0 -205 44 0 c31 0 46 5 50 16 5 14 8 14 28 0 33 -23 103
-21 128 4 30 30 40 63 40 133 0 74 -23 126 -63 145 -31 15 -79 8 -98 -14 -21
-25 -25 -15 -21 56 l4 70 -56 0 -56 0 0 -205z m174 9 c18 -18 21 -85 6 -115
-12 -21 -40 -25 -58 -7 -20 20 -15 115 6 127 23 14 28 14 46 -5z"/>
<path d="M1271 2994 c0 -11 3 -14 6 -6 3 7 2 16 -1 19 -3 4 -6 -2 -5 -13z"/>
<path d="M1326 3003 c-4 -5 -14 -23 -21 -40 -14 -34 -30 -42 -37 -21 -5 13
-58 -253 -58 -287 0 -12 20 -41 45 -65 l45 -44 78 74 77 75 -75 -78 -75 -77
78 -77 77 -78 22 22 22 22 -33 178 c-57 302 -66 338 -85 336 -53 -9 -51 -9
-50 30 1 40 1 41 -10 30z"/>
<path d="M2510 2815 l0 -195 45 0 45 0 0 138 0 137 72 -137 72 -138 68 0 68 0
0 195 0 195 -45 0 -44 0 -3 -132 -3 -133 -69 133 -68 132 -69 0 -69 0 0 -195z"/>
<path d="M3780 2814 c0 -115 -4 -203 -10 -215 -8 -13 -21 -19 -45 -19 -34 0
-35 -1 -35 -40 l0 -40 50 0 c64 0 103 20 124 64 13 28 16 70 16 240 l0 206
-50 0 -50 0 0 -196z"/>
<path d="M3232 2920 c-71 -17 -106 -75 -100 -168 4 -59 7 -67 41 -98 33 -31
42 -34 98 -34 81 0 99 11 99 59 l0 38 -38 -10 c-59 -16 -90 -4 -98 38 -14 76
18 114 82 96 35 -10 36 -9 50 26 8 19 13 37 10 40 -6 7 -78 23 -96 22 -8 -1
-30 -5 -48 -9z"/>
<path d="M3516 2920 c-84 -26 -120 -132 -77 -226 23 -52 68 -74 148 -74 92 0
103 6 103 51 0 37 -1 38 -26 29 -55 -21 -134 -6 -134 25 0 12 18 15 90 15 l90
0 0 48 c0 51 -25 103 -59 121 -29 16 -101 22 -135 11z m86 -77 c28 -25 22 -33
-27 -33 -48 0 -62 19 -27 39 24 14 33 13 54 -6z"/>
<path d="M4046 2920 c-59 -19 -96 -78 -96 -154 0 -43 35 -109 69 -129 41 -24
127 -23 169 3 81 50 82 203 2 262 -30 21 -104 31 -144 18z m84 -85 c18 -22 22
-87 8 -115 -15 -29 -42 -37 -63 -20 -18 15 -20 121 -3 138 16 16 43 15 58 -3z"/>
<path d="M2960 2770 l0 -150 55 0 55 0 0 150 0 150 -55 0 -55 0 0 -150z"/>
<path d="M1200 2630 c0 -14 -29 -167 -35 -181 -4 -11 20 -39 82 -96 l88 -81
59 55 59 55 -76 76 -77 77 -62 -60 -63 -60 60 63 60 62 -48 47 c-26 26 -47 46
-47 43z"/>
</g>
</svg>
